PathFileType	4	(X/Y/Z)	..\data\SUBJ01\static\static.trc
DataRate	CameraRate	NumFrames	NumMarkers	Units	OrigDataRate	OrigDataStartFrame	OrigNumFrames
100.000000	100.000000	4	33	mm	100.000000	71	82
Frame#	Time	LFHD			RFHD			LBHD			RBHD			C7			T10			CLAV			STRN			LSHO			LELB			LWRA			LWRB			LFIN			RSHO			RELB			RWRA			RWRB			RFIN			LASI			RASI			SACR			LTHI			LKNE			LTIB			LANK			LHEE			LTOE			RTHI			RKNE			RTIB			RANK			RHEE			RTOE			
		X1	Y1	Z1	X2	Y2	Z2	X3	Y3	Z3	X4	Y4	Z4	X5	Y5	Z5	X6	Y6	Z6	X7	Y7	Z7	X8	Y8	Z8	X9	Y9	Z9	X10	Y10	Z10	X11	Y11	Z11	X12	Y12	Z12	X13	Y13	Z13	X14	Y14	Z14	X15	Y15	Z15	X16	Y16	Z16	X17	Y17	Z17	X18	Y18	Z18	X19	Y19	Z19	X20	Y20	Z20	X21	Y21	Z21	X22	Y22	Z22	X23	Y23	Z23	X24	Y24	Z24	X25	Y25	Z25	X26	Y26	Z26	X27	Y27	Z27	X28	Y28	Z28	X29	Y29	Z29	X30	Y30	Z30	X31	Y31	Z31	X32	Y32	Z32	X33	Y33	Z33	

72	0.71	-132.2140197753907	1571.837280273438	-205.4324035644532	-160.4119567871094	1540.850952148438	-87.24443817138673	-272.0480041503907	1481.125366210938	-245.3896179199219	-298.6904907226563	1455.991088867188	-117.8533325195313	-318.4096374511719	1368.860473632813	-173.2562866210938	-371.1801757812501	1144.300537109375	-181.7026062011719	-165.6965484619141	1278.446411132813	-183.8667449951172	-97.7297058105469	1125.772094726563	-180.8516540527344	-242.5068511962891	1316.515747070313	-350.8654174804688	-160.576400756836	1093.17578125	-510.5076904296876	-49.17848968505861	882.8719482421877	-567.6217651367189	-48.9888381958008	916.7543945312502	-625.3753662109376	-19.05245399475098	813.7966308593752	-619.7268676757814	-232.5830841064454	1308.32080078125	-6.570845127105715	-203.3605194091797	1093.360473632813	178.9327850341797	-158.0735626220703	849.7664794921877	243.0575103759766	-158.3603057861328	898.2869873046877	307.1207885742188	-127.8912506103516	791.6860351562502	295.2707824707032	-155.4267883300782	885.6601562500002	-314.7482910156251	-159.4618835449219	889.054626464844	-33.40148162841798	-332.1441345214844	886.2314453125002	-172.6400146484375	-248.3561401367188	619.9238891601564	-383.3560791015626	-236.745834350586	438.9267578125001	-301.8886718750001	-274.6820678710938	200.0675506591797	-331.6459655761719	-256.8828735351563	67.21240997314455	-270.2550354003907	-314.8383178710938	52.85412597656251	-228.8866577148438	-148.355224609375	49.15443420410158	-244.1582794189454	-221.2161254882813	600.0536499023439	12.45127487182618	-226.064193725586	445.7294311523439	-52.01083755493165	-247.5840148925782	189.9993286132813	-27.80137825012208	-268.7132873535157	67.83280181884767	-85.43444061279298	-317.1197204589844	59.21383285522462	-142.7749786376953	-154.83935546875	47.7113380432129	-95.66036224365236	
73	0.72	-132.2998809814453	1571.808471679688	-205.3291168212891	-160.580551147461	1540.785766601563	-87.2489471435547	-272.1077880859376	1481.0556640625	-245.3602905273438	-298.7519226074219	1455.890747070313	-117.8467483520508	-318.5512390136719	1368.870361328125	-173.1892395019532	-371.2710571289063	1144.296630859375	-181.660400390625	-165.6757202148438	1278.461059570313	-183.8746643066407	-97.7761154174805	1125.795654296875	-180.7928771972657	-242.4749755859376	1316.473266601563	-350.7312316894532	-160.5708770751953	1093.107421875	-510.5305786132814	-49.27388000488283	882.8154296875002	-567.5247802734376	-49.06179046630861	916.6487426757815	-625.3201293945314	-19.14105796813965	813.7473754882815	-619.5559692382814	-232.7307281494141	1308.2900390625	-6.548890590667726	-203.4965820312501	1093.383422851563	179.0492858886719	-158.1571044921875	849.715270996094	242.9973907470704	-158.4412841796875	898.2283935546877	307.1529846191407	-127.9561462402344	791.6586914062502	295.1741027832032	-155.497787475586	885.6653442382815	-314.6864013671876	-159.5544891357422	889.0872192382815	-33.34835052490235	-332.1903381347657	886.2149658203127	-172.7194213867188	-248.4442901611329	619.8524780273439	-383.2767333984376	-236.6847229003907	438.9238586425782	-301.8403320312501	-274.7101745605469	200.0474243164063	-331.5370178222657	-256.8656921386719	67.23664855957033	-270.2257385253907	-314.8038940429688	52.86802291870119	-228.7963409423829	-148.3692932128907	49.13694381713869	-244.1696014404297	-221.384750366211	599.9778442382814	12.51756381988526	-226.0392456054688	445.7076416015626	-52.04645919799806	-247.5926818847657	189.9868774414063	-27.810941696167	-268.7552185058594	67.77697753906251	-85.43508148193361	-317.1106567382813	59.19923782348634	-142.7746276855469	-154.8215942382813	47.64837646484376	-95.61349487304689	
74	0.73	-132.3996276855469	1571.864135742188	-205.2284393310547	-160.7097625732422	1540.786743164063	-87.13683319091798	-272.2847290039063	1481.060913085938	-245.337631225586	-298.9098205566407	1455.87548828125	-117.8466720581055	-318.6029052734376	1368.843627929688	-173.2205505371094	-371.3469848632813	1144.224853515625	-181.6950988769532	-165.8501281738282	1278.459594726563	-183.8457641601563	-97.87052917480472	1125.781005859375	-180.6624603271485	-242.6832275390626	1316.053588867188	-350.7347106933594	-160.6587371826172	1093.002685546875	-510.471893310547	-49.35080337524415	882.7524414062502	-567.4603271484376	-49.14612960815431	916.586608886719	-625.2037963867189	-19.27478790283203	813.642517089844	-619.3497314453126	-232.8611755371094	1308.28662109375	-6.511491775512697	-203.7157592773438	1093.510986328125	179.1528778076172	-158.1713256835938	849.6069335937502	242.9646301269532	-158.5335235595703	898.164733886719	307.1063842773438	-128.0663452148438	791.5857543945315	295.2154846191407	-155.5109252929688	885.684753417969	-314.6704711914063	-159.732177734375	889.1975708007815	-33.2405014038086	-332.2897949218751	886.2221679687502	-172.6909790039063	-248.4171142578126	619.8565063476564	-383.2378540039063	-236.7564697265626	438.8801879882814	-301.7560729980469	-274.6889343261719	200.1160736083985	-331.5544433593751	-256.8963012695313	67.1873016357422	-270.2492980957032	-314.8580322265626	52.89168930053712	-228.8453369140626	-148.3682098388672	49.11885452270509	-244.1385192871094	-221.4656524658204	599.9672851562501	12.5075273513794	-226.1103668212891	445.6476135253907	-52.02062225341798	-247.6047515869141	189.9437255859375	-27.7995777130127	-268.7877502441407	67.72696685791017	-85.44983673095705	-317.1360168457032	59.11711883544923	-142.7491760253907	-154.8447570800782	47.6098747253418	-95.62037658691408	
75	0.74	-132.4670715332032	1571.86083984375	-205.2329864501954	-160.7234954833985	1540.748901367188	-87.12971496582033	-272.2912902832032	1481.0537109375	-245.3409271240235	-298.9352111816407	1455.794921875	-117.8269424438477	-318.6976013183594	1368.802124023438	-173.2048492431641	-371.4414672851563	1144.224853515625	-181.6358642578125	-165.9029693603516	1278.447265625	-183.8089141845703	-98.0157165527344	1125.779541015625	-180.6588897705078	-242.6594696044922	1316.324340820313	-350.7017822265626	-160.7520294189453	1092.945678710938	-510.3924255371095	-49.48228454589845	882.6697998046877	-567.3346557617189	-49.23368072509767	916.4976196289065	-625.1457519531251	-19.30618286132813	813.5509033203127	-619.1118164062501	-232.8771362304688	1308.26123046875	-6.512850284576418	-203.8126678466797	1093.294799804688	179.0032958984375	-158.1849670410157	849.5696411132815	242.9448547363282	-158.5733795166016	898.0535278320315	307.1014709472657	-128.1551666259766	791.5576171875002	295.1634216308594	-155.516586303711	885.707702636719	-314.6123046875001	-159.7332000732422	889.1458129882815	-33.35258102416993	-332.2988281250001	886.2097167968752	-172.6848297119141	-248.300277709961	619.8841552734376	-383.2727050781251	-236.7253875732422	438.8259582519532	-301.7805786132813	-274.6494750976563	199.9432525634766	-331.6911010742188	-256.9142761230469	67.15064239501955	-270.2420654296876	-314.8666992187501	52.8802947998047	-228.8488006591797	-148.3824615478516	49.10678482055665	-244.1725006103516	-221.5247497558594	599.9347534179689	12.50383186340332	-226.1930541992188	445.6494750976564	-51.94711303710939	-247.6122283935547	189.9294891357422	-27.79784011840821	-268.8078308105469	67.71580505371095	-85.53291320800783	-317.1189575195313	59.13195037841798	-142.77099609375	-154.8358001708985	47.60132598876954	-95.65250396728517	
